<?xml version="1.0" encoding="utf-8" ?>
<svg xmlns="http://www.w3.org/2000/svg" xmlns:xlink="http://www.w3.org/1999/xlink" width="1024" height="1024">
	<path fill="#FEFEFE" d="M0 0L551.902 0L552.947 0L1024 0L1024 1024L0 1024L0 0Z"/>
	<path fill="#000101" d="M551.902 0L552.947 0C555.302 1.60644 556.504 3.27817 557.666 5.89344C559.809 10.7143 560.804 16.2473 562.112 21.3489C572.786 62.9775 571.836 126.797 556.464 167.172C569.248 155.719 581.037 143.154 595.561 133.797C594.711 131.593 594.16 129.369 593.605 127.08C588.894 124.921 584.812 122.266 581.734 117.97C577.448 111.984 577.11 105.343 577.509 98.2785C579.763 58.3239 614.978 54.8087 618.103 29.8595C619.026 22.4958 615.363 16.2266 611.03 10.6651C615.928 13.464 619.946 17.0784 622.798 21.9818C628.046 31.0021 628.006 42.4126 624.603 52.0683C622.856 57.0246 620.467 61.8112 619.129 66.8976C619.081 67.0825 619.036 67.2685 618.99 67.4539C628.881 49.0404 631.217 45.3559 650.501 38.0861C655.473 36.2119 659.387 34.6206 663.452 31.1657C665.383 29.525 667.667 27.3088 670.45 27.8367C675.399 28.7755 678.429 39.4104 680.628 43.4739C687.048 44.9511 693.979 45.0678 699.827 48.401C704.508 51.0691 706.672 55.5051 708.057 60.5194C710.763 70.3218 711.952 82.8405 706.723 91.9604C714.441 94.4985 719.208 98.1852 724.595 104.115C709.486 111.402 700.914 121.945 688.943 133.044C681.697 139.763 673.822 145.558 665.106 150.216C677.245 151.053 692.329 157.91 700.493 167.046C707.204 174.556 707.969 183.059 707.44 192.635C704.765 186.24 701.036 180.51 695.817 175.896C680.878 162.691 666.282 168.683 648.653 169.591C629.651 170.569 615.297 162.502 601.525 150.063C584.984 161.256 569.697 177.329 555.832 191.647C562.512 190.199 569.217 188.813 576.003 187.962C607.458 184.017 643.52 190.594 671.727 205.067C681.764 210.217 690.912 216.761 699.779 223.688C699.57 223.979 699.365 224.273 699.145 224.556C691.317 234.65 680.919 243.082 670.698 250.671C635.732 276.63 603.01 289.006 560.186 295.089C555.937 312.085 548.154 327.951 536.374 341.02C536.727 349.366 537.679 357.284 537.163 365.692C561.128 340.489 576.855 330.034 608.757 315.998C616.788 312.465 624.997 308.608 633.378 305.987C630.738 329.302 610.142 369.755 595.305 388.609C629.616 384.835 665.084 383.823 698.875 391.86C699.676 390.819 700.483 389.773 701.223 388.688C709.091 377.156 709.568 352.128 707.011 338.897C705.646 331.83 702.411 323.797 696.142 319.761C692.74 317.57 687.703 316.282 683.702 317.235C680.772 317.932 678.213 320.007 676.788 322.645C672.107 331.304 680.773 337.835 684.836 344.403C685.821 345.996 686.338 347.898 686.878 349.68C681.387 347.67 676.057 345.094 672.417 340.321Q672.1 339.901 671.806 339.466Q671.511 339.03 671.239 338.58Q670.967 338.13 670.719 337.667Q670.47 337.203 670.246 336.728Q670.022 336.252 669.822 335.766Q669.623 335.279 669.449 334.783Q669.275 334.287 669.126 333.782Q668.978 333.278 668.855 332.767Q668.733 332.255 668.637 331.738Q668.541 331.221 668.472 330.7Q668.403 330.179 668.361 329.655Q668.318 329.13 668.303 328.605Q668.288 328.079 668.3 327.553Q668.311 327.028 668.35 326.503Q668.389 325.979 668.455 325.457Q668.521 324.936 668.613 324.418Q668.688 323.984 668.784 323.555Q668.88 323.126 668.998 322.702Q669.117 322.279 669.256 321.861Q669.396 321.444 669.556 321.035Q669.717 320.625 669.898 320.224Q670.08 319.824 670.281 319.432Q670.483 319.041 670.704 318.661Q670.925 318.281 671.165 317.912Q671.406 317.544 671.664 317.188Q671.923 316.832 672.199 316.49Q672.476 316.148 672.77 315.82Q673.063 315.493 673.373 315.18Q673.683 314.868 674.008 314.572Q674.334 314.276 674.674 313.997Q675.014 313.718 675.368 313.456Q675.721 313.195 676.088 312.952C680.647 309.924 686.281 309.205 691.572 310.357C698.594 311.885 704.58 316.459 708.388 322.485C718.274 338.13 716.015 361.54 712.077 378.628C717.578 372.517 723.495 366.781 728.805 360.49C744.86 341.469 758.864 316.737 759.609 291.388C755.512 294.266 751.398 296.175 746.26 295.321C740.923 294.433 736.439 290.856 733.359 286.544C729.982 281.817 728.127 275.806 729.154 270.009C729.995 265.264 732.601 260.937 736.671 258.292C740.226 255.983 745.097 254.777 749.287 255.692C754.655 256.864 758.711 261.375 761.531 265.859C770.572 280.235 765.687 301.634 761.966 316.894C772.039 311.123 779.031 306.46 790.767 304.265C799.924 302.552 810.672 303.145 818.463 308.733C822.587 311.69 824.972 315.97 825.644 320.984C826.289 325.801 825.285 330.931 822.253 334.808C819.326 338.551 814.634 340.978 809.924 341.437C805.223 341.894 800.472 340.254 796.901 337.19C793.684 334.43 791.67 330.616 791.414 326.366C791.035 320.068 794.146 314.85 798.055 310.246C783.778 312.409 766.248 318.294 757.212 330.392C752.624 336.535 749.167 344.085 744.996 350.592C740.665 357.347 735.324 363.546 730.251 369.75C735.597 369.128 740.867 368.313 746.266 368.595C760.913 369.359 779.512 377.7 789.335 388.685C792.69 392.438 795.054 397.122 794.633 402.269C794.233 407.149 791.366 411.52 787.634 414.558C783.565 417.872 778.321 419.681 773.067 418.948C769.227 418.413 765.596 416.673 763.317 413.452C760.768 409.85 760.174 404.857 760.937 400.594C762.25 393.262 767.223 388.425 773.122 384.462C763.532 378.716 751.009 374.91 739.766 375.509C725.572 376.266 715.966 383.843 706.84 394.067C721.797 397.431 736.829 404.288 749.983 412.037C762.275 419.278 771.324 426.461 782.042 435.792C784.293 437.751 787.717 440.129 789.32 442.628C792.664 447.843 805.466 500.761 808.027 510.641C837.692 500.516 862.285 508.198 889.867 519.955C898.718 523.728 907.47 527.835 916.804 530.295C941.357 536.764 956.854 532.149 978.228 519.695C977.304 529.524 975.311 539.307 970.882 548.198C961.134 567.76 939.145 584.148 918.733 590.956C924.591 594.023 930.532 597.025 936.215 600.411C942.718 604.284 948.981 608.555 955.522 612.369C977.182 625 999.534 636.957 1022.76 646.45C1013.58 648.891 1004.54 651.998 995.455 654.773Q972.104 661.986 948.465 668.192Q906.457 679 863.828 687.015Q821.2 695.03 778.135 700.216C780.428 707.482 781.837 714.556 781.387 722.216C780.269 741.255 769.828 757.83 755.849 770.229C755.529 779.068 755.426 787.819 753.275 796.454C751.18 804.862 747.896 812.829 740.165 817.471C746.474 823.941 751.403 831.811 757.018 838.882C760.946 843.827 765.51 848.174 769.451 853.122C769.29 853.923 769.327 854.183 768.782 854.844C764.583 859.939 719.601 867.432 711.157 868.604Q700.944 869.988 690.653 870.548C701.206 881.579 710.658 890.059 719.177 903.176C738 932.157 744.191 964.446 746.867 998.333C747.381 1004.85 749.125 1013.99 747.56 1020.34C747.175 1021.89 746.664 1022.57 745.295 1023.36C739.017 1023.24 730.622 1018.45 724.91 1015.87C700.672 1004.94 675.749 993.175 653.973 977.775C620.43 954.053 596.263 919.747 589.223 878.842C576.511 902.034 562.34 921.462 541.129 937.778C538.56 939.754 534.285 943.809 531.141 944.37C529.618 944.641 529.265 944.296 527.979 943.566C525.329 939.962 523.499 920.488 522.183 914.268C512.623 869.114 498.471 835.161 503.268 787.541C500.342 793.913 498.818 801.342 496.523 808.009C492.283 820.327 486.691 833.269 480.484 844.732C465.247 872.868 436.548 899.109 406.527 910.663C403.537 911.813 400.176 913.582 397.097 914.267C396.196 914.468 395.44 914.438 394.66 913.929C390.191 911.013 381.824 876.599 380.871 870.811C377.856 852.513 376.872 830.302 381.876 812.341C389.585 784.672 415.091 759.199 438.411 743.671C441.842 741.386 460.591 731.348 461.966 729.437L461.53 729.248L461.506 729.855L461.31 729.087C457.574 731.649 452.591 733.561 448.498 735.587C411.637 753.836 371.068 760.54 330.792 766.51L331.154 766.868C336.993 772.763 339.216 780.172 338.809 788.333C337.525 814.078 320.083 826.466 304.302 843.782C299.983 848.521 295.586 853.977 293.179 859.988C290.335 867.091 292.88 872.281 292.554 879.209C292.504 880.266 292.384 880.313 291.634 880.972C290.44 880.787 290.036 880.592 289.303 879.596C278.035 864.3 290.912 837.375 292.768 820.306C287.003 824.719 279.367 827.883 272.132 828.654C267.924 829.103 263.502 829.165 259.276 829.048C251.419 828.831 243.602 827.661 235.754 827.208C230.492 826.904 225.19 827.269 219.941 826.783C218.913 826.688 217.859 826.635 217.038 825.958C216.361 820.913 219.221 814.017 220.596 809.123C214.374 805.308 208.251 801.114 204.179 794.903C198.246 785.853 201.324 777.179 206.052 768.568C207.364 766.18 209.131 763.613 209.687 760.939C211.602 751.729 218.876 747.182 225.786 741.661C220.389 740.943 207.816 737.805 204.577 733.28C204.055 732.55 204.245 732.435 204.341 731.606C206.582 730.789 210.846 731.852 213.387 731.792C216.145 731.727 218.922 731.354 221.624 730.81C235.168 728.08 248.731 721.917 261.64 717.024C258.558 713.231 255.813 708.862 253.953 704.336C253.228 702.572 252.584 701.18 253.347 699.362C256.051 698.947 261.48 702.472 264.385 703.286C272.051 705.434 280.296 704.679 288.132 707.142C309.8 713.953 321.154 731.467 331.194 750.593C375.564 744.276 418.7 733.009 457.629 710.152C455.356 696.134 456.609 682.47 459.426 668.637C452.311 669.287 445.19 669.84 438.043 669.379C417.523 668.056 395.754 659.374 379.563 646.794C389.706 642.843 399.86 638.933 409.669 634.193C426.239 626.185 442.259 616.609 458.333 607.651C451.205 608.481 443.871 608.654 436.7 609.147Q407.897 611.394 379.01 611.869C361.533 629.233 348.786 652.427 342.019 676.068Q343.178 675.731 344.346 675.429C349.256 674.171 355.001 674.378 359.395 677.133C363.317 679.593 366.433 683.896 367.396 688.432C368.391 693.121 367.168 698.135 364.516 702.078Q364.248 702.479 363.96 702.866Q363.672 703.253 363.364 703.625Q363.057 703.996 362.73 704.352Q362.404 704.707 362.06 705.045Q361.715 705.383 361.354 705.702Q360.993 706.022 360.616 706.323Q360.239 706.624 359.847 706.905Q359.454 707.186 359.048 707.446Q358.642 707.706 358.223 707.945Q357.804 708.185 357.373 708.402Q356.943 708.619 356.501 708.814Q356.06 709.008 355.609 709.18Q355.158 709.352 354.699 709.5Q354.24 709.649 353.774 709.773Q353.308 709.898 352.836 709.998Q352.364 710.098 351.888 710.174C347.223 710.897 342.101 709.862 338.376 706.877C334.267 703.584 332 698.367 331.654 693.185C330.405 674.54 351.874 632.096 364.199 618.224C355.208 622.891 346.103 627.589 336.632 631.213C329.954 633.768 321.685 635.025 315.554 638.573C309.616 642.009 304.827 647.175 299.968 651.928C288.233 663.404 274.711 675.395 257.603 676.8C248.784 677.524 239.472 675.723 232.673 669.716C228.011 665.597 224.524 659.485 224.208 653.193Q224.185 652.662 224.19 652.13Q224.195 651.598 224.227 651.068Q224.26 650.537 224.319 650.009Q224.379 649.48 224.466 648.956Q224.552 648.431 224.666 647.912Q224.78 647.392 224.92 646.879Q225.061 646.366 225.227 645.861Q225.394 645.357 225.587 644.861Q225.779 644.365 225.997 643.88Q226.215 643.395 226.458 642.922Q226.7 642.449 226.967 641.989Q227.234 641.529 227.524 641.083Q227.814 640.638 228.126 640.208Q228.439 639.777 228.774 639.364Q229.108 638.951 229.463 638.555Q229.819 638.16 230.194 637.783C241.784 625.965 258.815 630.623 273.247 632.231C278.626 632.83 284.005 632.845 289.407 632.796C282.906 628.94 277.843 623.738 275.693 616.284C273.423 608.415 274.954 601.417 278.731 594.355C262.061 585.694 244.899 574.103 236.27 556.815C233.62 551.507 231.962 545.711 230.019 540.118C223.237 542.237 216.39 544.534 209.381 545.763C192.512 548.721 173.679 545.879 157.456 540.825C148.256 537.96 139.225 534.503 129.853 532.217C101.726 525.356 77.1276 531.446 52.7114 546.186Q52.7575 540.425 53.5153 534.713Q54.2731 529.002 55.731 523.428C62.8161 497.191 86.5686 481.353 108.86 468.647C85.4392 456.23 55.6222 440.783 30.8474 432.171C21.6285 428.967 12.0451 426.686 2.56986 424.38C43.4975 403.99 88.5058 390.424 133.056 380.675C148.333 377.332 163.751 374.818 179.07 371.704C179.477 369.155 179.929 366.716 180.953 364.328C187.812 348.34 207.787 336.62 223.268 330.714C204.879 298.722 228.392 266.309 210.44 231.197C209.504 229.367 209.008 228.339 209.664 226.298C216.581 223.849 224.541 224.125 232.147 221.243C256.067 212.181 272.972 195.049 300.56 200.046C306.151 190.925 312.477 182.458 320.311 175.124C329.887 166.159 340.201 158.777 348.356 148.263C355.168 139.481 357.104 130.1 362.554 121.22C370.321 123.224 388.011 134.09 396.324 138.322Q408.772 144.702 421.345 150.83C429.518 154.787 438.125 158.552 445.664 163.653C452.282 168.132 458.083 173.444 462.81 179.899C461.114 172.732 460.171 164.923 459.913 157.575C458.261 110.551 506.472 52.3441 535.863 18.6612C541.249 12.4888 546.312 5.98186 551.902 0Z"/>
	<path fill="#FEFEFE" d="M626.572 401.285C666.523 398.568 708.865 405.488 743.774 425.925C751.467 430.429 771.456 443.837 775.902 450.893C778.314 454.721 783.483 478.121 785.083 484.116L817.824 608.296C770.602 572.849 731.348 558.322 671.726 560.352C645.676 561.24 620.27 564.853 594.731 569.929C574.287 573.992 554.022 579.059 533.52 582.799C491.441 590.474 447.973 593.816 405.299 595.717C364.683 598.102 317.425 597.687 280.568 578.153C269.868 572.482 258.01 564.197 251.698 553.587C247.747 546.946 246.399 538.831 244.341 531.467L234.197 494.549Q221.434 449.811 207.784 405.336C235.795 427.828 273.28 442.755 309.01 446.225C347.217 449.934 386.199 442.482 423.64 435.419C468.586 426.941 513.243 416.746 558.383 409.353C580.931 405.661 603.71 402.13 626.572 401.285Z"/>
	<path fill="#000101" d="M648.74 443.399C648.981 443.438 649.225 443.466 649.465 443.516C666.046 446.978 684.852 452.047 699.954 459.706C732.364 476.142 754.159 507.971 773.136 537.843C736.16 528.278 690.601 520.284 671.839 482.583C662.679 464.178 664.029 458.941 648.74 443.399Z"/>
	<path fill="#000101" d="M249.865 468.969C256.479 470.645 263.017 472.715 269.61 474.491C280.655 477.464 291.732 480.231 302.582 483.878C328.483 492.584 343.42 510.488 356.977 533.26C361.591 541.011 366.133 548.872 370.136 556.958C367.748 556.585 365.406 556.022 363.062 555.434C315.241 543.441 298.599 534.836 269 495.261C262.615 486.723 255.323 478.119 249.865 468.969Z"/>
	<path fill="#000101" d="M455.714 454.78C456.179 454.819 456.315 454.816 456.821 454.941C459.164 455.519 460.584 457.067 461.84 459.059C463.951 462.409 464.883 466.527 463.938 470.41C461.921 478.698 454.332 490.739 450.501 498.896C443.867 513.018 438.46 529.186 435.057 544.437C432.243 543.223 428.882 541.873 426.592 539.803C417.821 531.875 415.008 496.89 414.235 484.927C407.65 497.302 401.833 511.709 398.492 525.328C397.242 530.424 396.547 545.648 394.211 548.96C390.014 546.444 386.407 542.899 383.621 538.903C382.484 518.323 401.434 471.512 413.028 454.995C415.321 456.114 417.68 457.206 419.807 458.622C422.175 460.197 424.88 462.57 426.059 465.223C428.144 469.912 427.544 485.092 428.024 491.039C428.628 498.511 429.401 506.015 430.783 513.385C433.549 504.498 450.941 460.126 455.714 454.78Z"/>
	<path fill="#000101" d="M487.736 475.931C495.188 475.968 494.327 481.103 499.23 484.596C500.389 483.342 501.196 482.306 502.91 481.835C506.436 482.124 508.77 484.836 511.316 487.049C506.106 496.785 498.532 513.374 497.163 524.372C496.442 530.169 498.512 532.626 501.871 537.022C498.43 536.322 495.284 535.631 492.243 533.755C489.012 531.762 487.384 529.236 486.573 525.582C486.558 524.24 486.455 523.261 486.068 521.954C485.266 522.205 477.903 532.585 474.872 534.596C472.759 535.998 470.306 536.661 467.812 535.988C464.969 535.22 462.892 533.003 461.541 530.473C458.395 524.577 458.838 517.278 460.918 511.096C465.068 498.762 475.734 481.919 487.736 475.931Z"/>
	<path fill="#FEFEFE" d="M495.653 487.397C496.757 487.936 496.341 487.512 496.832 488.735C496.159 492.216 494.488 495.552 493.129 498.816C488.301 510.415 481.818 523.151 471.136 530.447C470.582 529.904 470.254 529.474 469.961 528.749C468.167 524.309 470.936 517.716 472.698 513.585C477.083 503.308 485.007 491.73 495.653 487.397Z"/>
	<path fill="#000101" d="M608.716 468.928C609.869 468.937 611.119 468.915 612.199 469.386C616.145 471.107 617.732 476.137 619.208 479.811C620.241 478.193 621.204 476.666 623.268 476.384C626.267 475.975 629.415 478.725 631.753 480.318C626.377 491.551 620.07 502.49 618.116 515.024C617.098 521.555 618.694 525.21 622.441 530.293C619.479 529.623 616.144 529.011 613.407 527.674C609.044 525.543 608.042 521.408 606.746 517.151Q606.773 515.558 606.775 513.964C603.308 518.596 599.629 523.842 594.505 526.804C592.2 528.137 589.406 528.983 586.773 528.188C584.297 527.441 582.647 525.409 581.533 523.164C578.493 517.036 578.862 509.769 580.977 503.418C585.283 490.495 596.292 475.078 608.716 468.928Z"/>
	<path fill="#FEFEFE" d="M612.626 482.473C613.965 482.453 615.122 482.614 616.435 482.839L616.789 483.648C615.935 487.009 614.08 490.102 612.601 493.228C607.63 503.731 602.742 514.086 593.265 521.298L591.516 521.55C590.825 521.157 590.306 521.038 589.931 520.292C588.526 517.495 589.809 513.251 590.748 510.432C594.326 499.687 602.295 487.667 612.626 482.473Z"/>
	<path fill="#000101" d="M532.439 470.794C537.582 473.537 541.719 478.755 543.673 484.161C541.59 490.921 537.705 496.484 533.969 502.418C540.189 495.407 546.281 487.695 553.863 482.099C557.066 479.735 561.562 477.339 565.684 478.086C567.952 478.497 569.699 479.909 570.945 481.806C572.497 484.171 573.785 487.151 573.444 490.034C572.957 494.147 569.439 498.581 567.493 502.176C564.414 507.866 561.111 514.411 559.785 520.792C558.994 524.598 559.401 527.615 561.601 530.833C561.706 530.988 561.815 531.139 561.922 531.292L561.757 531.958C560.549 532.084 559.488 532.096 558.28 531.925C555.326 531.507 552.38 530.359 550.615 527.83C547.566 523.462 548.964 517.736 549.966 512.945C552.442 504.137 557.9 496.598 560.265 487.955C550.558 494.605 532.67 513.901 526.546 524.114C524.175 528.068 522.31 532.525 520.299 536.681L519.22 536.895C517.788 536.49 517.034 535.875 516.191 534.676C514.816 532.716 513.697 529.949 513.498 527.549C512.599 516.714 524.53 495.187 528.729 484.525C530.506 480.013 531.538 475.553 532.439 470.794Z"/>
	<path fill="#FEFEFE" d="M182.291 386.658C183.311 386.481 183.848 386.391 184.821 386.783C188.722 391.915 223.299 512.998 225.882 525.649C217.232 528.211 208.556 530.833 199.493 531.332C184.77 532.142 171.169 528.839 157.261 524.48C125.291 514.461 107.854 509.62 74.2671 518.573C84.7097 500.607 103.15 489.545 120.452 479.041C142.507 466.595 162.697 460.362 187.17 454.195C169.262 453.734 152.506 457.992 135.802 463.931C125.197 460.741 108.148 450.687 97.5558 445.298Q73.1701 432.927 48.1166 421.972C91.7734 405.224 136.303 394.631 182.291 386.658Z"/>
	<path fill="#FEFEFE" d="M831.262 521.2C838.283 520.462 845.754 521.581 852.583 523.191C889.395 531.868 912.834 555.602 954.142 546.423C932.732 576.096 886.974 591.67 852.439 598.561C865.054 600.017 876.617 598.439 888.865 595.204C920.128 605.964 945.976 626.307 975.288 640.993L980.857 643.688C968.668 647.324 956.31 650.363 944 653.553Q900.634 665.065 856.521 673.263C836.998 676.836 817.244 679.656 797.644 682.83C810.447 674.754 831.197 661.556 839.333 648.996C841.339 645.9 842.527 643.124 842.12 639.395C841.344 632.305 836.408 618.66 834.35 611.011L821.365 562.011C818.155 549.848 814.704 537.743 812.192 525.412C818.451 523.036 824.604 521.76 831.262 521.2Z"/>
	<path fill="#D65244" d="M480.897 250.321C483.844 252.837 486.416 256.26 488.921 259.234C501.409 274.064 511.619 290.205 519.071 308.13C532.889 341.367 532.673 367.361 518.956 400.486C513.128 402.226 506.951 403.243 500.997 404.471L470.659 410.771C460.217 412.567 449.973 415.35 439.5 417.039C435.343 411.979 432.721 405.316 431.094 399.036C428.313 388.307 428.859 377.279 432.014 366.683C435.08 356.385 440.775 346.749 446.037 337.435C459.282 313.992 483.514 277.976 480.897 250.321Z"/>
	<path fill="#D65244" d="M587.456 587.118L588.312 587.209C592.62 591.33 597.839 603.993 600.856 609.668Q604.764 616.998 609.107 624.079C608.73 629.318 608.148 634.411 606.52 639.431C601.429 655.132 589.881 667.633 580.024 680.469C570.493 692.881 562.473 707.063 559.194 722.488C557.545 730.246 557.437 737.806 557.457 745.69L553.975 741.199C547.129 731.374 541.042 720.594 536.784 709.405C520.872 667.589 524.809 637.226 542.695 597.263C557.69 594.351 572.576 590.575 587.456 587.118Z"/>
	<path fill="#D65244" d="M366.244 131.135C388.563 143.996 412.367 153.721 435.023 165.805Q436.404 166.555 437.748 167.37Q439.092 168.186 440.395 169.064Q441.698 169.943 442.957 170.884Q444.216 171.824 445.429 172.824Q446.642 173.824 447.805 174.88Q448.969 175.937 450.08 177.049Q451.191 178.16 452.248 179.323Q453.305 180.487 454.304 181.7Q455.304 182.913 456.244 184.172Q457.184 185.431 458.063 186.734Q458.942 188.037 459.757 189.381Q460.572 190.725 461.322 192.106Q462.072 193.488 462.755 194.903Q463.437 196.319 464.051 197.766Q464.665 199.213 465.209 200.687Q465.753 202.162 466.225 203.661C462.114 204.237 458.016 205.147 453.937 205.923C449.27 202.666 444.202 199.65 439.119 197.094C433.005 194.019 412.745 185.359 406.181 187.523C405.824 187.866 405.344 188.116 405.108 188.553C404.144 190.343 405.138 199.846 405.065 202.6C404.98 205.864 404.579 209.146 404.227 212.39C394.407 207.832 385.173 203.952 374.432 202.018C361.748 199.816 347.549 202.249 336.555 208.992C318.56 220.03 310.767 240.838 306.079 260.351C302.5 251.668 301.208 241.839 301.17 232.495C301.023 195.884 323.718 185.501 345.675 162.887C354.88 153.407 361.554 143.466 366.244 131.135Z"/>
	<path fill="#D65244" d="M268.42 367.125C278.535 369.051 288.986 368.794 299.233 368.593C317.246 368.238 335.429 367.179 353.238 370.573C370.119 373.789 392.488 381.644 401.895 397.315C403.483 399.96 404.492 403.161 405.722 405.995C408.177 411.651 410.892 416.84 414.35 421.948C411.751 422.565 409.094 422.951 406.462 423.397C382.214 427.662 331.047 436.457 308.835 429.072C282.803 420.416 279.133 388.356 268.42 367.125Z"/>
	<path fill="#D65244" d="M675.224 575.718Q684.246 575.442 693.27 575.664C720.118 597.592 732.841 633.455 737.457 666.779C721.785 660.027 705.888 654.117 689.877 648.235C678.716 644.096 667.501 639.773 657.065 634.003C636.719 622.756 617.474 603.983 607.493 582.789C630.112 579.492 652.365 576.675 675.224 575.718Z"/>
	<path fill="#FEFEFE" d="M413.151 196.142Q419.093 197.454 424.844 199.44C442.699 205.538 459.89 217.119 468.248 234.521C471.893 242.11 474.017 250.312 473.41 258.769C471.222 289.288 436.516 330.506 425.948 360.701C418.643 381.574 421.504 399.254 430.874 418.708L423.137 420.223C417.874 413.816 413.762 407.09 411.236 399.154C400.429 365.203 426.271 326.159 441.452 297.038C445.019 290.253 447.98 283.401 450.091 276.019C454.059 262.142 454.962 243.632 447.617 230.721C443.833 224.07 433.206 211.736 425.673 209.937C423.943 209.524 423.035 209.9 421.61 210.762C420.627 214.823 421.458 219.385 421.776 223.491C422.238 229.457 421.89 236.69 419.954 242.358C415.749 254.669 409.468 265.407 402.951 276.566C387.579 302.893 382.427 323.154 389.479 353.145C385.788 351.537 382.02 350.074 378.292 348.549C367.388 313.222 382.215 291.259 396.588 260.679C405.826 241.022 413.743 218.098 413.151 196.142Z"/>
	<path fill="#D65244" d="M504.813 637.934C505.56 639.029 503.555 650.394 503.437 652.505C501.385 689.194 510.176 734.957 541.982 757.406C551.086 763.832 562.456 766 570.004 774.403C557.766 775.821 546.267 775.854 534.103 773.868Q531.652 773.427 529.216 772.909C510.35 768.843 486.576 756.964 475.897 740.216C462.296 718.883 462.27 690.804 467.404 666.947C483.55 660.634 493.349 650.437 504.813 637.934Z"/>
	<path fill="#D65244" d="M478.283 210.19C490.692 209.756 503.625 213.584 514.19 220.037C531.744 230.758 547.312 249.959 552.076 270.176C557.288 292.289 547.488 310.983 536.129 329.275L535.288 330.489C534.485 330.268 534.474 329.669 534.214 328.938C533.219 326.139 532.983 323.073 532.156 320.221C531.029 316.34 529.387 312.482 527.937 308.707C520.129 288.383 507.553 268.758 493.229 252.388C488.656 247.162 482.631 242.947 478.523 237.406C476.302 234.411 475.179 230.157 473.48 226.807C470.82 221.563 466.316 217.077 462.4 212.745C467.713 211.75 472.879 210.617 478.283 210.19Z"/>
	<path fill="#D65244" d="M286.624 207.167C290.413 206.852 294.142 206.814 297.943 206.856C295.605 213.646 293.82 220.269 293.073 227.431C280.253 234.02 265.748 247.352 260.428 261C255.807 272.854 256.48 290.125 261.53 301.729C257.086 302.553 252.816 303.599 248.656 305.408C239.586 309.353 234.488 315.176 230.878 324.381C230.656 325.165 230.492 325.54 230.084 326.212C228.628 325.276 227.777 322.833 227.064 321.228C218.974 303.032 225.978 282.131 225.479 263.021C225.2 252.34 223.439 242.345 220.077 232.222C244.292 229.509 262.609 210.524 286.624 207.167Z"/>
	<path fill="#FEFEFE" d="M370.023 294.707L371.711 294.726C372.626 297.19 369.147 305.983 368.416 308.804C344.601 309.005 321.722 317.305 298.192 320.128Q293.321 320.71 288.415 320.781Q283.51 320.852 278.624 320.412C274.167 320.052 269.152 319.103 264.708 319.545C261.914 319.823 259.208 321.533 257.564 323.781C255.79 326.208 255.175 329.307 255.688 332.255C256.348 336.045 259.205 338.697 262.471 340.442C279.596 349.595 319.664 348.329 339.912 349.711C349.947 350.396 360.069 351.627 369.833 354.07C382.203 357.165 391.001 362.599 401.109 370.082L400.983 383.464C398.557 381.43 395.849 379.721 393.235 377.938C371.306 363.723 345.702 360.156 320.125 360.228C297.288 360.293 269.046 365.597 249.252 351.479C243.484 347.365 239.433 341.645 238.424 334.526C237.652 329.073 238.744 323.853 242.265 319.536C245.756 315.256 251.378 311.997 256.719 310.7C266.131 308.413 276.268 309.383 285.878 309.383Q296.574 309.342 307.17 307.886C328.379 304.85 348.618 297.009 370.023 294.707Z"/>
	<path fill="#D65244" d="M664.928 64.6945C668.456 64.202 673.161 64.1767 676.665 64.6952C678.249 64.9296 679.559 65.265 680.441 66.6943C683.15 71.0855 680.363 84.907 678.704 89.7598C672.446 108.064 657.839 125.437 640.489 133.998C633.518 131.398 626.846 129.908 619.378 130.194C614.052 130.718 609.251 131.718 604.195 133.484C602.703 129.484 601.751 125.352 601.123 121.137C604.43 116.897 606.397 111.96 608.684 107.14C612.625 98.8348 616.813 89.9755 622.484 82.7181C632.162 70.3347 650.157 66.52 664.928 64.6945Z"/>
	<path fill="#D65244" d="M280.925 750.158C281.257 750.12 281.587 750.076 281.919 750.044C290.842 749.167 314.593 764.601 321.821 770.434C318.868 779.517 314.035 788.342 307.044 794.951C297.376 804.091 285.662 807.292 272.639 806.965C261.659 805.352 251.212 802.266 241.733 796.303C237.254 793.484 233.058 789.509 231.968 784.124C231.366 781.154 231.916 777.937 233.672 775.445C240.908 765.176 268.85 752.085 280.925 750.158Z"/>
	<path fill="#D65244" d="M570.714 781.808C571.547 781.685 573.992 781.206 574.776 781.468C577.131 782.255 580.688 787.245 582.797 789.097C589.316 794.824 597.696 800.828 605.48 804.607C606.275 796.911 608.124 789.464 609.969 781.97Q611.52 784.397 613.374 786.601Q615.228 788.804 617.353 790.748C630.332 802.846 646.511 808.443 664.07 807.896C658.287 813.314 652.171 818.173 645.742 822.795C634.358 830.587 615.17 842.855 601.371 844.382C597.285 839.054 595.194 831.542 590.492 826.971C582.146 818.858 568.914 821.433 560.721 813.646C553.084 806.386 553.418 792.724 553.351 782.964C559.153 782.711 564.946 782.523 570.714 781.808Z"/>
	<path fill="#FEFEFE" d="M615.964 632.84C617.477 633.83 618.758 635.157 620.071 636.396C620.832 674.465 578.401 699.066 578.944 741.678C579.115 755.088 583.47 767.76 593.137 777.266C594.817 770.453 596.438 763.172 599.673 756.899C603.836 748.825 610.131 741.85 616.29 735.254C636.955 713.125 653.602 697.883 654.303 665.381C657.365 674.546 658.277 682.932 656.877 692.522C651.218 725.251 622.016 740.307 607.684 767.684C603.514 775.648 601.403 783.736 599.632 792.474C588.308 784.776 578.614 776.911 571.573 764.876C566.199 755.689 564.434 746.572 564.849 736.003C566.277 699.614 589.746 684.8 606.104 657.397C610.817 649.502 613.642 641.667 615.964 632.84Z"/>
	<path fill="#FEFEFE" d="M739.697 583.525C739.865 583.544 740.034 583.554 740.201 583.581C744.483 584.271 749.077 586.384 753.147 587.958C778.671 597.833 811.51 617.94 827.628 640.508C819.179 649.581 808.732 657.115 798.617 664.185C790.08 670.021 776.726 679.393 767.488 683.133C765.362 680.998 763.149 679.139 760.78 677.281C769.272 658.919 774.149 639.513 768.774 619.469C764.504 603.543 753.76 591.708 739.697 583.525Z"/>
	<path fill="#D65244" d="M429.881 220.883C433.955 224.371 437.539 228.421 440.111 233.146C455.498 261.421 434.701 293.027 421.752 317.65C415.146 330.209 408.682 343.281 404.574 356.896L403.22 361.156L399.367 357.887C387.878 325.942 395.408 304.554 412.038 276.631C419.114 264.751 426.052 252.321 428.793 238.624C429.981 232.688 430.013 226.902 429.881 220.883Z"/>
	<path fill="#D65244" d="M627.233 644.199C632.864 648.123 638.746 651.413 644.763 654.694Q645.267 656.327 645.645 657.994C654.496 698.183 613.892 720.283 595.497 749.517C593.228 753.468 591.648 757.621 590.22 761.933C571.534 714.759 622.618 684.398 627.233 644.199Z"/>
	<path fill="#D65244" d="M720.626 725.287C725.904 731.024 730.396 734.78 737.679 737.75C738.856 741.974 739.876 746.178 740.295 750.554C742.628 774.913 729.712 795.334 714.859 813.399C709.245 812.845 703.682 812.233 698.107 811.349C689.905 810.002 682.001 808.254 674.02 805.933Q678.64 803.903 682.873 801.155C707.515 784.903 715.18 752.444 720.626 725.287Z"/>
	<path fill="#FEFEFE" d="M725.135 700.058C728.431 707.391 733.486 716.847 741.436 719.937C743.466 720.725 745.781 721.01 747.805 720.041C749.399 719.277 750.49 717.842 751.056 716.193C752.241 712.746 751.218 708.666 749.791 705.458C739.63 682.609 698.772 671.407 677.16 661.949C661.859 655.252 644.354 648.357 631.417 637.732C618.213 626.887 611.326 613.613 603.704 598.736C601.697 594.816 599.144 590.902 597.375 586.916C597.624 585.6 597.88 585.603 598.94 584.745C600.689 584.885 606.079 595.55 607.325 597.542C612.629 606.018 619.618 614.033 626.881 620.874C651.75 644.298 679.268 652.05 710.18 663.724C721.625 668.046 733.218 672.121 742.681 680.119C751.728 687.765 760.793 698.212 761.665 710.587C762.038 715.882 761 720.971 757.38 725.024Q756.782 725.685 756.123 726.286Q755.464 726.885 754.75 727.418Q754.035 727.951 753.272 728.412Q752.509 728.873 751.704 729.257Q750.9 729.642 750.062 729.946Q749.224 730.25 748.361 730.47Q747.497 730.691 746.616 730.827Q745.735 730.963 744.845 731.012C739.714 731.282 734.971 729.42 731.167 726.01C722.734 718.45 723.153 709.587 722.798 699.355C723.601 699.55 724.399 699.674 725.135 700.058Z"/>
	<path fill="#FEFEFE" d="M714.334 714.445C715.305 720.024 710.839 735.384 709.302 741.43C704.278 761.185 695.586 784.115 677.097 794.96C667.962 800.318 656.646 801.64 646.437 798.948C633.906 795.643 621.814 787.682 615.303 776.343C621.2 766.583 630.618 756.293 640.506 750.466C649.26 745.307 658.632 743.171 668.582 745.786C674.832 748.297 679.376 752.666 683.584 757.783C680.448 761.825 676.54 765.033 672.566 768.21C669.094 762.485 664.941 758.256 658.218 756.551C650.745 754.656 642.147 757.378 635.78 761.388C631.398 764.148 625.764 768.915 624.783 774.21C624.487 775.808 624.755 777.537 625.764 778.845C628.572 782.484 636.857 783.671 641.221 784.194C655.691 785.928 668.627 781.92 679.931 772.817C695.542 760.247 701.107 740.158 703.161 721.006C707.196 719.468 710.793 716.862 714.334 714.445Z"/>
	<path fill="#FEFEFE" d="M360.014 209.177C374.582 207.109 389.832 213.816 402.477 220.22C401.934 223.068 401.207 225.882 400.529 228.7C398.161 227.62 395.722 226.823 393.194 226.213C382.841 223.717 369.629 223.313 360.276 229.253C357.917 230.751 354.523 233.986 354.367 236.997C354.222 239.796 357.584 242.748 359.036 244.934C360.309 246.852 360.735 249.012 360.136 251.246C358.763 256.366 353.556 260.361 349.222 262.978C349.023 258.265 349.101 253.819 349.842 249.153C350.247 246.601 351.245 243.471 351.212 240.917C351.203 240.186 350.885 239.629 350.559 239.001C349.561 238.12 349.305 237.819 347.893 237.801C343.754 237.748 338.655 243.074 336.004 245.956Q335.102 247.019 334.288 248.151C323.716 262.62 319.925 279.11 322.739 296.68L309.866 299.633L309.794 299.095C307.198 278.4 315.406 243.501 328.181 227.012C336.26 216.585 347.027 210.873 360.014 209.177Z"/>
	<path fill="#D65244" d="M708.102 579.809C712.529 579.87 717.738 581.858 721.875 583.358C737.818 589.141 750.75 598.424 758.037 614.227C766.104 631.723 763.107 650.432 756.625 667.867L754.043 673.792C751.327 672.108 748.527 670.654 745.685 669.199C740.619 636.23 730.821 605.143 708.102 579.809Z"/>
	<path fill="#D65244" d="M362.403 316.686C363.811 316.461 365.296 316.176 366.55 316.876C367.065 320.718 366.373 324.76 366.5 328.646C366.688 334.438 367.974 340.342 369.01 346.037C338.658 339.637 307.585 343.037 277.231 337.414C272.437 336.324 265.773 334.717 262.679 330.605C262.489 329.515 262.34 329.011 263.129 328.068C264.953 325.886 268.393 327.306 270.766 327.639C301.871 332.001 331.91 321.004 362.403 316.686Z"/>
	<path fill="#CFEAD3" d="M643.47 832.548C644.56 840.738 642.915 849.525 643.72 857.805C644.156 862.284 645.025 864.266 648.511 867.094C658.608 868.513 668.847 869.453 678.979 870.64C693.615 883.424 707.256 896.891 717.035 913.833C711.561 911.735 706.227 908.983 700.909 906.501C689.795 901.54 678.215 896.84 666.641 893.065C657.701 881.439 646.231 871.145 635.1 861.668C629.943 857.278 623.975 852.985 619.393 848.026C619.938 847.054 623.621 845.973 624.807 845.152C631.032 840.841 637.012 836.567 643.47 832.548Z"/>
	<path fill="#FEFEFE" d="M247.222 636.597C256.784 635.816 266.078 638.12 275.526 639.144C284.874 640.157 294.338 639.883 303.693 639.174C295.572 646.746 287.896 654.535 279.025 661.27C274.324 664.469 269.639 667.347 264.132 668.942C256.348 671.197 247.3 670.893 240.184 666.753C235.919 664.271 232.43 660.282 231.237 655.424C230.326 651.715 230.899 647.876 233.01 644.673C236.263 639.736 241.685 637.699 247.222 636.597Z"/>
	<path fill="#CFEAD3" d="M587.373 224.669C587.463 224.655 587.551 224.628 587.641 224.629C597.812 224.693 633.283 253.346 642.111 260.781C634.345 265.872 625.143 269.675 616.628 273.34L614.697 274.044C613.575 273.723 600.36 259.185 597.734 256.749C586.831 246.637 575.524 238.127 562.708 230.547C570.893 228.107 578.935 226.05 587.373 224.669Z"/>
	<path fill="#CFEAD3" d="M629.146 867.148C633.043 868.9 636.91 872.934 640.123 875.729C644.027 901.608 645.922 928.483 636.296 953.389C634.775 952.097 633.4 950.595 631.995 949.177C624.806 940.442 618.142 931.408 612.651 921.493C621.831 904.348 627.556 886.562 629.146 867.148Z"/>
	<path fill="#FEFEFE" d="M285.115 597.31Q291.817 599.907 298.687 602.021Q305.557 604.134 312.56 605.755Q319.563 607.375 326.663 608.493Q333.763 609.611 340.925 610.222C348.011 610.866 355.144 610.963 362.242 611.486C357.199 614.397 351.951 616.919 346.735 619.501Q339.205 623.245 331.295 626.098Q323.385 628.952 315.2 630.877C306.886 632.786 299.724 631.577 292.551 626.991C287.189 623.563 282.986 618.337 281.728 612.005C280.614 606.398 282.104 601.946 285.115 597.31Z"/>
	<path fill="#FEFEFE" d="M231.059 344.437L231.706 344.652C233.332 347.197 233.769 351.455 234.286 354.398C237.135 370.637 238.505 388.682 235.169 404.872C228.838 400.92 222.795 396.428 216.849 391.925C211.268 387.725 201.765 381.142 199.048 374.729C198.095 372.48 198.353 370.128 199.307 367.925C204.21 356.608 220.419 349.001 231.059 344.437Z"/>
	<path fill="#CFEAD3" d="M617.173 221.712C636.477 220.301 665.745 223.755 684.693 228.568C678.934 236.173 669.483 242.336 661.913 248.074C657.826 251.122 653.422 253.876 649.196 256.736C634.392 244.044 619.3 232.604 602.524 222.625L617.173 221.712Z"/>
	<path fill="#CFEAD3" d="M649.87 886.227C652.957 888.293 655.843 891.668 658.211 894.506C660.884 897.71 663.446 901.206 664.944 905.131C668.749 915.102 669.769 940.632 668.724 951.479C668.292 955.96 666.123 971.627 662.71 974.455L661.563 974.06C654.524 969.434 647.579 964.268 641.687 958.241C653.452 937.206 651.63 909.531 649.87 886.227Z"/>
	<path fill="#CFEAD3" d="M487.113 95.8222C489.824 101.667 491.84 108.087 494.11 114.127C500.894 132.172 506.785 149.472 510 168.519Q505.235 180.419 499.38 191.822C492.708 168.995 485.644 141.068 475.828 119.808C478.876 111.525 483.039 103.636 487.113 95.8222Z"/>
	<path fill="#D65244" d="M242.571 356.29C248.066 359.523 252.977 363.137 258.743 366.054C271.398 387.454 271.531 409.748 291.762 428.096C276.215 425.434 260.449 418.387 246.307 411.608C246.543 392.658 245.579 375.035 242.571 356.29Z"/>
	<path fill="#D65244" d="M661.468 663.094C670.817 667.46 680.275 671.362 689.866 675.158C706.473 681.73 738.975 691.731 745.435 710.402C745.834 711.556 745.831 712.296 745.432 713.433C744.149 714.292 743.93 714.391 742.393 714.472C737.129 712.149 732.913 697.463 727.477 698.783C726.619 698.991 725.835 699.548 725.135 700.058C724.399 699.674 723.601 699.55 722.798 699.355C722.522 698.456 722.217 697.566 721.825 696.71C720.931 694.761 719.741 694.129 717.83 693.432C717.088 693.573 716.538 693.522 715.975 694.079C714.313 695.725 714.385 697.893 714.373 700.078C713.831 696.244 714.504 695.049 711.56 692.084C711.108 690.708 710.672 690.076 709.73 689.027C708.151 688.432 707.385 688.677 705.862 689.368C701.974 691.13 698.849 694.266 695.299 696.593C685.855 702.781 673.926 703.142 663.094 701.776C666.404 688.047 666.229 676.425 661.468 663.094Z"/>
	<path fill="#CFEAD3" d="M507.98 64.3266C509.999 66.0193 511.323 71.729 512.179 74.3507C517.156 89.5939 524.032 118.387 522.869 133.913C522.308 141.409 519.894 148.709 516.496 155.382L514.236 148.121C507.901 127.737 500.248 108.068 492.385 88.245C497.31 80.0813 502.216 71.934 507.98 64.3266Z"/>
	<path fill="#FEFEFE" d="M531.06 599.251C532.07 599.298 532.599 599.319 533.437 599.911C526.725 615.408 521.327 630.878 519.955 647.869C516.789 687.062 531.15 727.745 556.622 757.504L552.265 755.169C531.167 741.889 520.954 723.188 515.082 699.418C510.192 679.623 508.067 655.68 514.103 635.965C516.255 628.936 519.673 622.337 522.83 615.722C525.456 610.219 527.906 604.473 531.06 599.251Z"/>
	<path fill="#CFEAD3" d="M552.217 233.883C552.438 233.921 552.667 233.926 552.88 233.997C565.656 238.253 598.316 265.861 606.141 277.058C602.898 278.58 599.433 279.529 596.016 280.578Q586.386 283.241 576.612 285.314C570.668 274.099 562.705 264.694 555.564 254.32C551.804 248.857 548.788 242.767 545.216 237.146C547.603 236.196 549.904 235 552.217 233.883Z"/>
	<path fill="#D65244" d="M669.266 36.4024C671.408 38.6057 671.839 42.8212 672.91 45.6614C676.027 53.9286 687.813 50.8103 694.555 54.1007C698.045 55.804 699.475 58.4138 700.664 62.0059C702.972 68.9795 704.48 81.6381 700.776 88.3233C698.287 92.8153 688.98 94.3374 684.4 95.7584C688.718 85.948 689.806 74.552 687.926 64.0405C687.748 63.5415 687.564 63.0487 687.347 62.5649C686.342 60.3273 684.692 59.4049 682.448 58.5598C678.799 57.1852 674.607 57.1285 670.749 57.1035C655.149 57.0025 641.789 61.404 627.782 67.8014C639.533 43.3557 650.377 49.9758 669.266 36.4024Z"/>
	<path fill="#CFEAD3" d="M472.45 749.738C474.006 750.502 475.495 752.211 476.791 753.41C485.532 761.496 491.213 770.65 495.863 781.586C495.21 786.505 489.07 810.802 485.97 813.422L485.346 812.797C477.18 799.842 468.323 787.311 459.971 774.47C463.346 765.867 467.78 757.694 472.45 749.738Z"/>
	<path fill="#CFEAD3" d="M544.922 19.9816C544.942 20.0063 544.973 20.0252 544.984 20.0557C546.925 25.5119 531.813 100.394 529.507 112.519L527.064 100.389C523.824 85.6333 519.834 70.8328 514.221 56.7911Q528.972 37.8868 544.922 19.9816Z"/>
	<path fill="#CFEAD3" d="M451.889 771.092C451.977 774.237 442.434 792.981 440.392 797.722C424.001 803.882 406.785 808.83 389.835 813.207C389.82 813.033 389.786 812.859 389.791 812.684C389.991 806.257 400.815 789.308 405.215 784.898C418.875 783.008 438.447 775.441 451.889 771.092Z"/>
	<path fill="#CFEAD3" d="M675.049 915.922C675.457 916.247 675.57 916.317 675.972 916.753C681.099 922.322 687.532 931.416 690.181 938.455C695.17 951.707 696.215 979.152 695.185 993.328L690.83 991.254C683.574 987.407 676.542 983.165 669.48 978.977C678.656 954.296 678.025 941.673 675.049 915.922Z"/>
	<path fill="#CFEAD3" d="M455.562 782.747C460.958 788.088 464.97 795.481 469.066 801.824Q475.614 812.124 482.881 821.93C479.721 830.259 475.249 838.425 470.979 846.239L468.97 849.268C462.373 833.457 452.864 818.879 446.559 802.964C449.168 796.031 452.26 789.37 455.562 782.747Z"/>
	<path fill="#CFEAD3" d="M608.405 850.597L609.491 850.415C613.947 852.781 618.285 857.163 622.411 860.182C620.226 880.043 616.565 894.925 608.551 913.314C604.935 911.742 598.327 886.521 597.269 881.485C596.265 876.709 596.139 871.054 594.256 866.587C596.303 861.834 597.895 856.981 599.369 852.026C602.55 851.892 605.354 851.436 608.405 850.597Z"/>
	<path fill="#CFEAD3" d="M434.95 807.626C434.667 811.457 426.646 829.408 424.727 833.482C413.006 839.777 398.826 844.628 386.331 849.421C385.094 840.207 386.361 830.301 387.179 821.071C403.4 817.691 419.013 812.066 434.95 807.626Z"/>
	<path fill="#CFEAD3" d="M547.958 826.484L548.314 826.842C549.132 830.961 546.717 855.773 545.807 860.786C538.565 867.562 529.839 873.289 521.805 879.087C521.195 877.497 520.832 875.796 520.405 874.147Q517.372 861.748 514.925 849.22C525.138 840.527 536.37 833.202 547.958 826.484Z"/>
	<path fill="#CFEAD3" d="M442.078 811.784C444.154 814.201 461.763 851.727 463.526 856.507C459.958 862.417 455.09 867.453 450.273 872.346L444.91 876.941C440.872 863.343 437.971 849.758 432.164 836.736C435.126 828.329 438.146 819.794 442.078 811.784Z"/>
	<path fill="#CFEAD3" d="M677.772 820.877C686.284 823.126 693.971 827.248 701.827 831.12C703.974 838.24 706.31 845.165 709.291 851.986C710.026 853.669 713.402 859.249 713.049 860.716L711.383 861.234Q697.275 862.931 683.071 863.36C679.527 849.973 676.98 834.735 677.772 820.877Z"/>
	<path fill="#CFEAD3" d="M556.478 828.364C558.721 830.866 560.573 834.066 562.507 836.851C570.516 848.388 577.215 860.193 584.084 872.413C580.903 878.597 577.464 884.62 574.007 890.653C572.267 893.595 570.344 896.454 568.509 899.34C564.196 885.403 560.727 870.997 553.871 858.012Q555.596 843.225 556.478 828.364Z"/>
	<path fill="#CFEAD3" d="M471.642 129.907C475.212 135.613 493.251 196.583 493.522 203.33C492.397 203.76 491.552 203.428 490.384 203.242C485.467 202.494 480.844 202.492 475.891 202.905C468.964 177.346 464.041 156.114 471.642 129.907Z"/>
	<path fill="#D65244" d="M700.387 99.6648C704.727 99.0936 708.363 100.108 712.445 101.434C693.627 115.849 680.022 133.766 658.844 145.538C658.621 145.587 658.403 145.659 658.177 145.686C656.524 145.878 649.436 139.96 647.57 138.697C654.312 135.191 660.079 131.218 665.184 125.544C671.577 118.437 676.479 109.194 684.965 104.312C689.709 101.583 695.061 100.572 700.387 99.6648Z"/>
	<path fill="#CFEAD3" d="M419.998 844.051C420.337 847.847 399.617 894.575 396.424 900.468L393.807 892.624Q391.039 884.041 389.161 875.22Q387.282 866.399 386.313 857.433C397.629 853.28 408.779 848.483 419.998 844.051Z"/>
	<path fill="#CFEAD3" d="M553.419 147.494L554.084 147.585L554.345 148.396C551.883 158.849 548.374 168.533 542.995 177.846C532.236 181.275 521.74 186.832 511.476 191.549C510.877 191.473 511.204 191.583 510.578 191.033C515.322 181.909 518.235 172.051 522.829 162.897C532.694 156.547 542.497 151.745 553.419 147.494Z"/>
	<path fill="#CFEAD3" d="M676.236 904.817C680.19 905.502 684.582 907.869 688.276 909.461C700.024 914.525 711.474 919.968 722.911 925.689C726.668 933.421 730.321 942.277 731.98 950.709C728.148 949.052 724.454 946.728 720.75 944.779C713.558 940.995 706.329 937.667 698.618 935.057C690.954 925.091 684.381 914.457 676.236 904.817Z"/>
	<path fill="#CFEAD3" d="M427.56 846.285C433.002 855.639 435.903 871.854 438.458 882.648Q432.166 887.954 425.314 892.514Q418.462 897.074 411.138 900.83C408.605 902.124 405.927 903.158 403.308 904.264Q416.094 875.55 427.56 846.285Z"/>
	<path fill="#CFEAD3" d="M618.819 196.815C637.946 197.52 666.005 209.135 681.438 220.094C676.339 218.968 671.301 217.945 666.122 217.234C645.223 214.378 623.559 213.127 602.507 214.883C607.576 208.632 613.431 202.808 618.819 196.815Z"/>
	<path fill="#CFEAD3" d="M512.335 775.246Q520.271 778.076 528.487 779.946Q536.703 781.815 545.083 782.696C545.416 786.872 545.448 791.088 545.575 795.275C540.918 796.612 536.41 798.06 531.877 799.782C523.844 803.047 516.592 806.689 509.602 811.845C509.532 799.583 510.095 787.317 512.335 775.246Z"/>
	<path fill="#FEFEFE" d="M292.785 236.455C294.032 238.516 293.899 246.088 294.396 249.169C290.974 252.388 287.809 255.755 285.156 259.648C276.181 272.817 275.373 286.304 278.204 301.58L269.277 301.495C266.075 291.017 263.906 279.339 266.349 268.451C269.311 255.245 281.737 243.378 292.785 236.455Z"/>
	<path fill="#CFEAD3" d="M664.933 816.404L669.96 819.168C668.754 833.682 671.16 848.739 674.968 862.733C670.812 862.477 666.733 862.108 662.611 861.516C658.833 860.583 655.996 858.902 652.838 856.734C650.688 847.284 651.253 837.085 652.064 827.483C656.287 823.72 660.723 820.201 664.933 816.404Z"/>
	<path fill="#CFEAD3" d="M563.284 197.601L564.987 197.382L565.362 197.935C561.889 207.439 556.508 216.298 552.951 225.883C548.315 227.212 544.09 229.524 539.835 231.74C537.456 228.95 534.973 226.333 532.377 223.744C528.7 220.582 524.917 217.649 521.033 214.752C525.126 212.529 528.858 209.661 532.977 207.445C542.479 202.333 552.818 199.82 563.284 197.601Z"/>
	<path fill="#CFEAD3" d="M701.26 953.199C701.308 953.248 701.36 953.294 701.405 953.346C706.96 959.823 735.123 1006.72 734.689 1011.94C723.721 1006.77 712.458 1002.24 701.793 996.43C703.502 981.183 702.806 968.368 701.26 953.199Z"/>
	<path fill="#CFEAD3" d="M560.509 65.994L560.801 66.2792C562.633 72.9687 561.212 96.6735 560.824 105.066C552.645 107.874 545.201 112.026 537.795 116.409L537.517 116.386C536.814 115.321 537.271 114.318 537.505 113.088C538.528 107.705 539.908 102.328 541.026 96.9529C544.391 80.7855 546.311 75.5306 560.509 65.994Z"/>
	<path fill="#CFEAD3" d="M583.682 194.698C591.93 193.614 601.737 194.231 610.023 195.005C603.812 202.482 597.197 209.875 589.925 216.337C587.817 216.576 585.722 216.978 583.629 217.327C576.316 218.513 569.198 220.543 562.122 222.696C565.907 213.407 571.082 204.529 575.795 195.676C578.405 195.237 581.053 194.996 583.682 194.698Z"/>
	<path fill="#D65244" d="M254.301 739.189C261.714 739.025 268.77 741.228 275.788 743.338C260.444 748.363 247.355 755.553 234.312 765.004L230.577 767.969C226.669 766.412 222.295 764.993 218.661 762.885C217.494 762.207 216.951 761.825 216.58 760.528C216.866 759.74 217.152 759.109 217.679 758.445C222.381 752.519 235.205 744.068 242.389 741.586C246.265 740.247 250.239 739.616 254.301 739.189Z"/>
	<path fill="#CFEAD3" d="M545.019 803.528L546.222 803.383C548.602 805.345 549.292 813.238 549.827 816.353C537.082 822.551 525.786 831.149 514.489 839.593L513.573 839.884C511.724 837.359 510.729 823.354 510.334 819.573C521.713 813.18 532.519 807.53 545.019 803.528Z"/>
	<path fill="#CFEAD3" d="M464.275 737.462L465.236 737.593C466.507 738.828 467.01 740.826 467.62 742.469C463.816 748.562 460.794 755.37 457.495 761.763C443.579 765.311 429.95 770.584 416.105 774.532C415.386 774.693 414.783 774.71 414.051 774.726L414.192 773.744C416.432 770.848 419.313 768.487 422.018 766.036C434.789 754.467 448.957 745.28 464.275 737.462Z"/>
	<path fill="#FEFEFE" d="M711.56 692.084C714.504 695.049 713.831 696.244 714.373 700.078L714.54 705.605C696.266 718.671 674.103 721.35 652.368 723.411C655.399 718.623 658.012 713.857 660.073 708.569C665.161 709.477 670.331 710.087 675.505 709.899C691.706 709.313 700.912 703.657 711.56 692.084Z"/>
	<path fill="#D65244" d="M752.758 680.358C755.788 680.687 760.141 685.591 762.09 687.845Q762.822 688.686 763.512 689.562Q764.202 690.438 764.847 691.348Q765.492 692.258 766.091 693.199Q766.69 694.139 767.241 695.109Q767.792 696.078 768.295 697.074Q768.797 698.069 769.249 699.089Q769.701 700.108 770.101 701.149Q770.502 702.19 770.85 703.249Q771.198 704.309 771.493 705.384Q771.788 706.46 772.029 707.548Q772.27 708.637 772.456 709.737Q772.643 710.836 772.774 711.944Q772.905 713.051 772.981 714.164Q773.057 715.276 773.077 716.391Q773.097 717.506 773.062 718.621Q773.027 719.735 772.936 720.847C771.562 739.365 762.7 754.818 748.862 766.821L748.362 766.734C747.235 763.901 748.574 758.156 748.454 754.836C748.251 749.206 747.192 743.773 746.116 738.263C752.074 737.541 757.607 735.928 762.055 731.664C766.812 727.103 768.774 720.715 768.905 714.26C769.178 700.777 761.821 689.661 752.758 680.358Z"/>
	<path fill="#D65244" d="M342.312 250.375C342.141 257.503 340.762 267.395 343.537 274.011C348.402 285.612 370.132 280.377 375.027 283.215C376.223 283.908 376.335 284.048 376.599 285.308C375.876 286.077 375.553 286.409 374.48 286.68C370.151 287.773 362.877 287.513 358.078 288.156C348.857 289.78 339.754 292.259 330.676 294.536C330.414 292.213 330.076 289.884 329.984 287.545C329.496 275.016 333.754 259.767 342.312 250.375Z"/>
	<path fill="#D65244" d="M233.407 799.991C253.699 811.978 266.676 815.721 290.034 813.581C286.724 815.827 283.31 817.483 279.646 819.064C262.435 825.168 243.171 819.488 225.359 819.44C227.396 812.543 230.23 806.409 233.407 799.991Z"/>
	<path fill="#D65244" d="M694.731 723.523L695.334 723.815C696.281 729.136 690.133 745.548 687.731 750.886C684.097 746.711 680.341 743.01 675.362 740.463C666.113 735.733 656.432 736.752 646.876 739.771C642.75 741.154 638.821 743.192 634.89 745.048C638.518 740.586 642.644 736.42 646.544 732.186C662.641 730.993 679.43 728.651 694.731 723.523Z"/>
	<path fill="#D65244" d="M296.685 257.834C298.553 262.304 300.778 266.025 303.716 269.879C300.959 280.804 298.776 289.95 302.446 300.926L294.559 301.469L285.713 301.587C285.298 298.012 284.926 294.446 284.803 290.847C284.361 277.938 287.836 267.322 296.685 257.834Z"/>
	<path fill="#CFEAD3" d="M559.4 113.535L559.642 113.821C560.672 120.251 558.022 131.765 556.69 138.333C546.734 141.546 537.633 145.292 528.573 150.568L528.389 150.409C527.602 148.298 532.45 133.133 533.38 129.718C541.634 123.197 549.939 118.118 559.4 113.535Z"/>
	<path fill="#CFEAD3" d="M706.142 946.312C714.096 948.897 726.758 956.467 734.241 961.061C737.413 974.109 738.813 988.767 739.548 1002.18C737.327 999.558 735.69 995.677 734.01 992.632C730.231 985.781 726.5 978.894 722.627 972.096C717.593 963.26 711.68 954.844 706.142 946.312Z"/>
	<path fill="#CFEAD3" d="M543.44 872.969L543.749 873.268C545.507 879.221 535.577 919.005 532.439 926.858C531.796 924.306 531.226 921.731 530.623 919.169Q527.519 903.168 523.536 887.362C529.982 882.377 536.389 877.075 543.44 872.969Z"/>
	<path fill="#CFEAD3" d="M551.665 873.27C555.365 876.295 561.087 901.092 562.836 906.949C557.189 912.415 552.492 918.601 546.566 923.881C544.137 926.024 541.609 927.979 539.023 929.927C546.151 913.185 550.027 891.329 551.665 873.27Z"/>
	<path fill="#FEFEFE" d="M368.235 248.668C375.601 252.595 380.93 259.927 384.664 267.163C383.488 269.936 381.944 272.5 380.439 275.102C376.414 275.189 372.399 275.009 368.378 274.858C362.147 274.385 356.539 273.707 350.563 271.852C360.025 262.632 364.638 263.498 368.235 248.668Z"/>
	<path fill="#D65244" d="M374.531 232.64C383.008 231.746 390.416 233.038 398.502 235.454C395.696 243.227 392.938 251.014 389.526 258.547L388.854 258.612C381.684 248.55 373.721 242.364 362.768 236.824C366.669 234.572 370.099 233.409 374.531 232.64Z"/>
	<path fill="#FEFEFE" d="M744.737 261.995C745.94 261.95 747.104 262.012 748.243 262.435C751.886 263.787 754.653 267.039 756.203 270.505C757.845 274.177 758.31 278.361 756.785 282.15C755.341 285.738 752.879 287.572 749.39 288.973C748.271 288.993 747.089 288.862 746.033 288.469C742.339 287.093 739.245 283.485 737.619 280.001C735.959 276.443 735.319 272.351 736.878 268.644C738.459 264.885 741.162 263.498 744.737 261.995Z"/>
	<path fill="#D65244" d="M214.246 768.196C218.002 770.563 221.575 772.31 225.877 773.466C223.466 781.439 224.779 787.269 228.457 794.457C226.541 797.255 225.039 800.175 223.521 803.201C223.399 803.149 223.271 803.108 223.155 803.043C217.695 799.964 210.109 792.841 208.217 786.777C206.551 781.441 211.746 772.783 214.246 768.196Z"/>
	<path fill="#CFEAD3" d="M711.053 835.132C720.777 836.881 740.831 848.649 752.269 852.676C750.154 853.298 747.99 853.799 745.854 854.349C737.835 855.786 729.837 857.861 721.836 859.484C717.4 851.72 713.725 843.675 711.053 835.132Z"/>
	<path fill="#CFEAD3" d="M560.438 821.855C563.129 823.338 565.793 824.738 568.702 825.751C574.992 827.941 581.495 828.148 585.858 833.841C588.45 837.222 590.403 841.412 592.524 845.106C591.57 849.799 590.261 854.454 589.095 859.101C588.819 860.203 588.542 861.044 587.966 862.026C585.886 860.466 581.786 852.211 580.141 849.591C574.067 839.917 567.904 830.529 560.438 821.855Z"/>
	<path fill="#FEFEFE" d="M348.077 681.207Q348.355 681.174 348.634 681.155Q348.913 681.135 349.193 681.13Q349.473 681.124 349.752 681.132Q350.032 681.141 350.311 681.162Q350.59 681.184 350.867 681.22Q351.145 681.255 351.42 681.305Q351.696 681.354 351.969 681.416Q352.241 681.479 352.511 681.555Q352.78 681.631 353.045 681.72Q353.31 681.809 353.571 681.911Q353.832 682.013 354.087 682.128Q354.342 682.242 354.591 682.369Q354.841 682.496 355.083 682.635Q355.326 682.774 355.562 682.925Q355.797 683.076 356.025 683.238Q356.253 683.401 356.473 683.574Q356.693 683.747 356.904 683.931Q357.115 684.115 357.316 684.309Q357.518 684.503 357.71 684.707Q357.902 684.91 358.083 685.123Q358.265 685.336 358.436 685.557Q358.607 685.779 358.767 686.008Q358.927 686.238 359.075 686.475Q359.224 686.712 359.36 686.957Q359.497 687.201 359.621 687.451Q359.746 687.702 359.858 687.958Q359.97 688.215 360.069 688.476Q360.168 688.738 360.255 689.004Q360.341 689.27 360.414 689.541Q360.487 689.811 360.547 690.084Q360.607 690.357 360.653 690.633Q360.699 690.909 360.732 691.187Q360.765 691.465 360.784 691.744Q360.803 692.023 360.808 692.303Q360.813 692.583 360.805 692.862Q360.796 693.142 360.774 693.421Q360.752 693.7 360.716 693.977Q360.68 694.255 360.631 694.53Q360.581 694.806 360.518 695.078Q360.455 695.351 360.379 695.62Q360.303 695.889 360.213 696.154Q360.124 696.419 360.022 696.68Q359.919 696.94 359.805 697.195Q359.69 697.451 359.562 697.7Q359.435 697.949 359.296 698.191Q359.156 698.434 359.005 698.669Q358.854 698.905 358.691 699.133Q358.529 699.36 358.355 699.58Q358.182 699.799 357.998 700.01Q357.814 700.221 357.62 700.422Q357.425 700.624 357.221 700.815Q357.018 701.007 356.805 701.188Q356.592 701.37 356.37 701.541Q356.148 701.711 355.918 701.871Q355.689 702.031 355.451 702.179Q355.214 702.327 354.97 702.463Q354.725 702.599 354.475 702.724Q354.224 702.848 353.967 702.96Q353.711 703.071 353.449 703.17Q353.187 703.269 352.921 703.355Q352.655 703.441 352.385 703.514Q352.115 703.587 351.841 703.646Q351.568 703.706 351.292 703.752Q351.016 703.798 350.738 703.83Q350.461 703.862 350.182 703.881Q349.903 703.9 349.624 703.905Q349.344 703.91 349.065 703.901Q348.786 703.892 348.507 703.87Q348.229 703.847 347.952 703.811Q347.675 703.775 347.4 703.726Q347.125 703.676 346.853 703.613Q346.58 703.55 346.312 703.474Q346.043 703.398 345.778 703.308Q345.513 703.219 345.253 703.117Q344.993 703.014 344.739 702.899Q344.484 702.785 344.235 702.657Q343.986 702.53 343.744 702.391Q343.502 702.252 343.267 702.101Q343.032 701.95 342.804 701.787Q342.577 701.625 342.358 701.452Q342.138 701.279 341.928 701.095Q341.718 700.911 341.517 700.717Q341.315 700.523 341.124 700.32Q340.932 700.116 340.751 699.904Q340.57 699.691 340.4 699.47Q340.229 699.248 340.069 699.019Q339.91 698.79 339.762 698.553Q339.614 698.316 339.478 698.072Q339.341 697.828 339.217 697.578Q339.093 697.327 338.981 697.071Q338.87 696.815 338.771 696.554Q338.672 696.292 338.585 696.027Q338.499 695.761 338.426 695.491Q338.353 695.222 338.294 694.949Q338.234 694.676 338.188 694.4Q338.142 694.125 338.109 693.847Q338.076 693.57 338.057 693.291Q338.038 693.012 338.033 692.733Q338.028 692.453 338.036 692.174Q338.045 691.895 338.067 691.616Q338.089 691.338 338.125 691.061Q338.16 690.784 338.21 690.509Q338.259 690.234 338.322 689.962Q338.384 689.689 338.46 689.42Q338.536 689.151 338.625 688.887Q338.714 688.622 338.816 688.362Q338.918 688.102 339.033 687.847Q339.147 687.592 339.274 687.343Q339.401 687.094 339.54 686.852Q339.679 686.609 339.83 686.374Q339.98 686.139 340.142 685.911Q340.304 685.684 340.477 685.464Q340.65 685.245 340.834 685.034Q341.018 684.824 341.211 684.622Q341.405 684.421 341.608 684.229Q341.811 684.038 342.024 683.856Q342.236 683.675 342.457 683.504Q342.679 683.333 342.908 683.174Q343.137 683.014 343.374 682.865Q343.61 682.717 343.854 682.58Q344.098 682.444 344.348 682.32Q344.598 682.195 344.854 682.083Q345.11 681.971 345.371 681.872Q345.632 681.772 345.898 681.686Q346.164 681.599 346.433 681.526Q346.703 681.453 346.976 681.393Q347.249 681.333 347.524 681.286Q347.8 681.24 348.077 681.207Z"/>
	<path fill="#CFEAD3" d="M699.111 821.222C708.207 821.252 719.073 820.003 727.909 821.336C739.195 823.04 744.936 835.186 750.969 843.708C748.994 843.906 706.217 824.089 699.111 821.222Z"/>
	<path fill="#FEFEFE" d="M807.186 312.531C809.802 312.383 811.883 312.373 814.176 313.783C817.579 315.877 818.684 319.581 819.663 323.203C819.354 324.554 819.057 325.939 818.551 327.232C817.045 331.078 814.492 332.962 810.786 334.506C808.974 334.719 807.222 334.922 805.417 334.55C803.009 334.055 800.855 332.746 799.602 330.592C798.122 328.047 798.091 324.77 798.885 321.998C800.223 317.326 803.056 314.759 807.186 312.531Z"/>
	<path fill="#FEFEFE" d="M778.746 389.987C779.489 390.116 780.227 390.256 780.933 390.53C783.249 391.43 785.686 393.938 786.518 396.288C787.51 399.093 787.265 402.552 785.968 405.218C783.907 409.455 780.662 411.278 776.362 412.718C775.33 412.602 774.237 412.532 773.243 412.216C771.177 411.56 769.128 409.847 768.26 407.846C767.161 405.311 767.635 402.172 768.609 399.677C770.562 394.675 774.039 392.061 778.746 389.987Z"/>
	<path fill="#CFEAD3" d="M553.675 19.3254C556.498 21.8699 559.812 50.9164 560.353 56.6195C557.092 58.9196 554.001 61.5256 550.865 63.9961L546.043 68.2735C549.928 52.2943 551.241 35.5796 553.675 19.3254Z"/>
	<path fill="#D65244" d="M650.777 763.603C653.154 763.487 655.456 763.462 657.741 764.232C661.965 765.655 664.098 768.886 666.041 772.638C660.322 775.227 654.426 776.275 648.203 776.679C643.809 776.707 637.476 777.033 633.742 774.5C633.076 773.292 633.156 773.316 633.466 771.956C637.297 767.094 644.876 764.706 650.777 763.603Z"/>
	<path fill="#D65244" d="M746.693 772.715C747.394 773.297 747.816 773.827 748.01 774.751C749.739 782.973 745.509 799.658 741.032 806.814C737.974 811.704 731.831 812.437 726.631 813.529L725.848 813.284L725.785 812.384C734.467 801.747 742.26 785.571 746.693 772.715Z"/>
	<path fill="#CFEAD3" d="M536.319 189.052L536.692 189.544C528.829 200.954 525.763 203.424 513.84 210.815C512.332 209.794 510.734 208.919 509.152 208.019C507.523 207.336 506.065 206.682 504.606 205.68L505.017 204.487C510.51 199.071 528.488 192.506 536.319 189.052Z"/>
	<path fill="#CFEAD3" d="M561.489 275.903C563.602 278.405 567.555 283.431 567.384 286.732C565.277 286.968 563.13 287.004 561.011 287.111C561.02 283.381 561.304 279.629 561.489 275.903Z"/>
	<path fill="#CFEAD3" d="M497.959 768.775C500.316 769.693 502.601 771.194 504.823 772.417L504.047 776.899L503.732 777.322L502.915 777.4C500.174 775.475 499.182 771.764 497.959 768.775Z"/>
	<path fill="#000101" d="M408.773 675.152Q409.255 675.047 409.741 674.965Q410.228 674.883 410.717 674.825Q411.207 674.768 411.699 674.734Q412.191 674.7 412.684 674.691Q413.177 674.681 413.67 674.696Q414.163 674.711 414.655 674.75Q415.147 674.789 415.636 674.852Q416.125 674.915 416.61 675.002Q417.096 675.089 417.576 675.2Q418.057 675.31 418.531 675.445Q419.006 675.579 419.474 675.736Q419.941 675.894 420.4 676.074Q420.859 676.254 421.309 676.456Q421.759 676.659 422.198 676.883Q422.637 677.107 423.065 677.353Q423.493 677.598 423.908 677.864Q424.323 678.131 424.724 678.417Q425.126 678.703 425.513 679.009Q425.9 679.315 426.272 679.639Q426.643 679.964 426.998 680.306Q427.353 680.648 427.691 681.007Q428.029 681.366 428.349 681.742Q428.669 682.117 428.97 682.508Q429.271 682.898 429.553 683.303Q429.834 683.708 430.096 684.126Q430.357 684.545 430.597 684.975Q430.838 685.406 431.057 685.848Q431.276 686.29 431.473 686.742Q431.67 687.194 431.845 687.655Q432.019 688.116 432.171 688.586Q432.323 689.055 432.451 689.531Q432.58 690.007 432.685 690.489Q432.79 690.971 432.871 691.457Q432.953 691.944 433.01 692.434Q433.067 692.924 433.1 693.416Q433.133 693.908 433.142 694.401Q433.151 694.894 433.136 695.387Q433.121 695.88 433.081 696.371Q433.042 696.863 432.978 697.352Q432.914 697.841 432.827 698.326Q432.739 698.812 432.628 699.292Q432.517 699.773 432.382 700.247Q432.248 700.722 432.09 701.189Q431.932 701.656 431.751 702.115Q431.571 702.574 431.368 703.023Q431.165 703.473 430.94 703.912Q430.716 704.351 430.47 704.778Q430.224 705.206 429.957 705.621Q429.69 706.036 429.404 706.437Q429.117 706.838 428.811 707.225Q428.505 707.611 428.18 707.983Q427.855 708.354 427.513 708.709Q427.17 709.063 426.811 709.401Q426.451 709.739 426.076 710.058Q425.7 710.378 425.309 710.678Q424.918 710.979 424.513 711.26Q424.108 711.541 423.689 711.802Q423.271 712.063 422.84 712.303Q422.409 712.543 421.967 712.762Q421.525 712.98 421.072 713.177Q420.62 713.374 420.159 713.548Q419.697 713.722 419.228 713.873Q418.759 714.024 418.282 714.153Q417.806 714.281 417.324 714.385Q416.843 714.489 416.357 714.57Q415.871 714.651 415.382 714.708Q414.892 714.764 414.401 714.797Q413.909 714.83 413.417 714.838Q412.924 714.847 412.432 714.831Q411.94 714.816 411.449 714.776Q410.958 714.736 410.469 714.672Q409.981 714.609 409.496 714.521Q409.011 714.434 408.532 714.322Q408.052 714.211 407.578 714.076Q407.104 713.942 406.638 713.784Q406.171 713.626 405.713 713.446Q405.254 713.265 404.805 713.062Q404.356 712.86 403.918 712.635Q403.479 712.411 403.053 712.165Q402.626 711.919 402.211 711.653Q401.797 711.387 401.396 711.1Q400.995 710.814 400.609 710.508Q400.223 710.203 399.852 709.878Q399.481 709.554 399.127 709.212Q398.772 708.87 398.435 708.511Q398.098 708.152 397.779 707.777Q397.459 707.402 397.159 707.012Q396.858 706.621 396.577 706.217Q396.296 705.812 396.036 705.394Q395.775 704.976 395.535 704.546Q395.295 704.116 395.076 703.675Q394.858 703.233 394.661 702.782Q394.464 702.33 394.29 701.869Q394.116 701.409 393.964 700.94Q393.813 700.471 393.684 699.996Q393.556 699.52 393.451 699.039Q393.346 698.558 393.265 698.072Q393.184 697.586 393.127 697.097Q393.069 696.608 393.036 696.116Q393.003 695.625 392.994 695.132Q392.985 694.64 393 694.148Q393.015 693.655 393.055 693.164Q393.094 692.673 393.157 692.185Q393.22 691.696 393.307 691.212Q393.395 690.727 393.505 690.247Q393.616 689.767 393.75 689.293Q393.885 688.819 394.042 688.353Q394.199 687.886 394.379 687.427Q394.559 686.969 394.762 686.52Q394.964 686.071 395.188 685.632Q395.412 685.193 395.657 684.766Q395.902 684.339 396.168 683.924Q396.434 683.51 396.72 683.109Q397.006 682.708 397.311 682.321Q397.617 681.935 397.941 681.564Q398.264 681.192 398.606 680.838Q398.948 680.483 399.306 680.145Q399.665 679.808 400.04 679.488Q400.415 679.169 400.805 678.868Q401.195 678.567 401.599 678.285Q402.003 678.004 402.421 677.743Q402.838 677.482 403.268 677.241Q403.698 677.001 404.139 676.782Q404.58 676.563 405.032 676.366Q405.483 676.169 405.944 675.994Q406.404 675.819 406.873 675.667Q407.341 675.515 407.816 675.386Q408.292 675.257 408.773 675.152Z"/>
	<path fill="#FEFEFE" d="M410.682 681.72Q411 681.66 411.32 681.616Q411.641 681.572 411.963 681.544Q412.285 681.515 412.609 681.503Q412.932 681.49 413.256 681.493Q413.579 681.496 413.902 681.515Q414.225 681.534 414.547 681.569Q414.868 681.603 415.188 681.654Q415.507 681.704 415.824 681.77Q416.141 681.836 416.454 681.917Q416.767 681.998 417.076 682.095Q417.385 682.191 417.689 682.303Q417.992 682.414 418.29 682.54Q418.588 682.666 418.88 682.807Q419.171 682.947 419.455 683.102Q419.74 683.256 420.016 683.425Q420.292 683.593 420.56 683.774Q420.828 683.956 421.086 684.15Q421.345 684.345 421.594 684.551Q421.843 684.758 422.081 684.977Q422.32 685.195 422.547 685.426Q422.774 685.656 422.99 685.896Q423.206 686.137 423.41 686.388Q423.614 686.64 423.806 686.9Q423.997 687.161 424.176 687.431Q424.354 687.701 424.519 687.979Q424.685 688.257 424.836 688.543Q424.987 688.829 425.125 689.122Q425.262 689.415 425.384 689.714Q425.507 690.014 425.615 690.319Q425.723 690.624 425.816 690.934Q425.909 691.243 425.987 691.557Q426.065 691.872 426.127 692.189Q426.189 692.506 426.236 692.827Q426.283 693.147 426.314 693.469Q426.345 693.791 426.36 694.114Q426.376 694.437 426.375 694.76Q426.375 695.084 426.358 695.407Q426.342 695.73 426.31 696.052Q426.278 696.374 426.23 696.694Q426.183 697.014 426.119 697.331Q426.056 697.649 425.978 697.962Q425.899 698.276 425.805 698.586Q425.711 698.895 425.602 699.2Q425.493 699.505 425.37 699.803Q425.246 700.102 425.108 700.395Q424.97 700.688 424.818 700.973Q424.666 701.259 424.5 701.536Q424.334 701.814 424.155 702.083Q423.975 702.353 423.783 702.613Q423.591 702.873 423.386 703.124Q423.182 703.374 422.965 703.614Q422.748 703.855 422.52 704.084Q422.292 704.313 422.053 704.531Q421.814 704.749 421.564 704.955Q421.315 705.161 421.056 705.355Q420.797 705.549 420.528 705.729Q420.26 705.91 419.983 706.078Q419.706 706.245 419.422 706.399Q419.137 706.552 418.845 706.692Q418.553 706.832 418.255 706.957Q417.957 707.082 417.653 707.193Q417.349 707.303 417.04 707.399Q416.731 707.494 416.417 707.575Q416.104 707.655 415.787 707.72Q415.467 707.786 415.144 707.835Q414.82 707.885 414.495 707.919Q414.17 707.953 413.844 707.97Q413.517 707.988 413.19 707.99Q412.863 707.991 412.536 707.977Q412.21 707.962 411.884 707.931Q411.559 707.901 411.235 707.854Q410.912 707.807 410.591 707.745Q410.27 707.682 409.952 707.604Q409.635 707.526 409.322 707.432Q409.009 707.338 408.7 707.229Q408.392 707.119 408.09 706.995Q407.787 706.871 407.492 706.732Q407.196 706.593 406.907 706.439Q406.618 706.286 406.337 706.118Q406.057 705.951 405.785 705.77Q405.512 705.588 405.249 705.394Q404.987 705.2 404.734 704.992Q404.481 704.785 404.238 704.566Q403.996 704.347 403.764 704.116Q403.533 703.885 403.313 703.642Q403.094 703.4 402.886 703.147Q402.679 702.895 402.484 702.632Q402.289 702.37 402.108 702.098Q401.926 701.826 401.758 701.545Q401.59 701.265 401.436 700.976Q401.283 700.688 401.143 700.392Q401.004 700.096 400.879 699.794Q400.754 699.492 400.645 699.184Q400.535 698.876 400.441 698.562Q400.346 698.25 400.268 697.932Q400.189 697.615 400.126 697.294Q400.063 696.973 400.016 696.65Q399.969 696.326 399.938 696.001Q399.907 695.675 399.892 695.349Q399.877 695.022 399.878 694.695Q399.879 694.368 399.896 694.041Q399.913 693.715 399.947 693.39Q399.98 693.064 400.03 692.741Q400.079 692.418 400.144 692.098Q400.209 691.777 400.29 691.46Q400.371 691.144 400.468 690.831Q400.564 690.519 400.676 690.212Q400.788 689.904 400.915 689.603Q401.042 689.302 401.183 689.007Q401.325 688.712 401.48 688.425Q401.636 688.137 401.806 687.858Q401.976 687.578 402.159 687.308Q402.343 687.037 402.54 686.776Q402.736 686.515 402.945 686.263Q403.155 686.012 403.376 685.772Q403.597 685.531 403.83 685.301Q404.063 685.072 404.307 684.854Q404.551 684.637 404.806 684.431Q405.06 684.226 405.324 684.033Q405.589 683.841 405.862 683.662Q406.135 683.482 406.417 683.317Q406.699 683.151 406.989 683Q407.279 682.848 407.576 682.711Q407.873 682.574 408.176 682.452Q408.479 682.33 408.788 682.223Q409.097 682.116 409.411 682.024Q409.725 681.932 410.043 681.856Q410.361 681.78 410.682 681.72Z"/>
</svg>
